# xmcd
#
# Track frame offsets:
#	150
#	28471
#	49131
#	69576
#	89183
#	111391
#	132394
#	155362
#	174704
#	197128
#	216743
#	238001
#	257068
#	280844
#
# Disc length: 3946 seconds
#
# Revision: 3146803550
# Processed by: cddbd v1.5.2PL0 Copyright (c) Steve Scherf et al.
# Submitted via: EZCDAudioConverter 8.0.2.1
#
DISCID=e60f680e
DTITLE=Đàm Vĩnh Hưng - Vol 09. Giải thoát
DYEAR=2006
DGENRE=
TTITLE0=Tình yêu không có lỗi
TTITLE1=Ngày xa em
TTITLE2=Thành phố mưa bay
TTITLE3=Khóc cho người đi
TTITLE4=Tình tuyệt vọng
TTITLE5=Tình lỡ
TTITLE6=Nỗi nhớ sẽ qua
TTITLE7=Hoa có vàng nơi ấy
TTITLE8=Giải thoát
TTITLE9=Cỏ úa
TTITLE10=Cho em ngày nắng xanh
TTITLE11=Giọt nước mắt vô vọng
TTITLE12=Anh đón em về
TTITLE13=Tiếng gió xôn xao
EXTD=
EXTT0=
EXTT1=
EXTT2=
EXTT3=
EXTT4=
EXTT5=
EXTT6=
EXTT7=
EXTT8=
EXTT9=
EXTT10=
EXTT11=
EXTT12=
EXTT13=
PLAYORDER=
